<svg xmlns="http://www.w3.org/2000/svg" viewBox="0 0 800 800" role="img" aria-label="Ras Luxury Radiance Beauty Boosting Day Elixir">

  <defs>
    <linearGradient id="bg" x1="0" y1="0" x2="0" y2="1">
      <stop offset="0" stop-color="hsl(15 40% 96%)"/>
      <stop offset="1" stop-color="hsl(15 34% 88%)"/>
    </linearGradient>
    <radialGradient id="glow" cx="0.5" cy="0.42" r="0.55">
      <stop offset="0" stop-color="white" stop-opacity="0.85"/>
      <stop offset="1" stop-color="white" stop-opacity="0"/>
    </radialGradient>
    <linearGradient id="body" x1="0" y1="0" x2="1" y2="0">
      <stop offset="0" stop-color="hsl(15 42% 80%)"/>
      <stop offset="0.5" stop-color="hsl(15 48% 66%)"/>
      <stop offset="1" stop-color="hsl(15 44% 54%)"/>
    </linearGradient>
    <linearGradient id="bodyDeep" x1="0" y1="0" x2="1" y2="0">
      <stop offset="0" stop-color="hsl(15 40% 46%)"/>
      <stop offset="1" stop-color="hsl(15 42% 30%)"/>
    </linearGradient>
    <linearGradient id="cap" x1="0" y1="0" x2="1" y2="0">
      <stop offset="0" stop-color="hsl(15 28% 34%)"/>
      <stop offset="1" stop-color="hsl(15 30% 20%)"/>
    </linearGradient>
    <linearGradient id="metal" x1="0" y1="0" x2="1" y2="0">
      <stop offset="0" stop-color="#e9dfca"/><stop offset="0.5" stop-color="#c9b489"/><stop offset="1" stop-color="#a68a55"/>
    </linearGradient>
    <radialGradient id="pan" cx="0.35" cy="0.3" r="0.9">
      <stop offset="0" stop-color="hsl(15 60% 84%)"/>
      <stop offset="0.6" stop-color="hsl(15 55% 68%)"/>
      <stop offset="1" stop-color="hsl(15 50% 56%)"/>
    </radialGradient>
  </defs>

  <rect width="800" height="800" fill="url(#bg)"/>
  <rect width="800" height="800" fill="url(#glow)"/>
  <circle cx="400" cy="430" r="252" fill="none" stroke="hsl(15 30% 55% / 0.28)" stroke-width="1.6"/>
  <circle cx="633" cy="222" r="4" fill="hsl(15 45% 55% / 0.5)"/>
  <circle cx="163" cy="286" r="3" fill="hsl(15 45% 55% / 0.45)"/>
  <circle cx="192" cy="596" r="4" fill="hsl(15 45% 55% / 0.4)"/>
  <ellipse cx="400" cy="648" rx="196" ry="26" fill="hsl(15 30% 30% / 0.16)"/>

  <text x="400" y="98" text-anchor="middle" font-family="Georgia,'Times New Roman',serif" font-style="italic" font-size="34" fill="hsl(15 25% 26% / 0.85)">Ras Luxury</text>
  <rect x="356" y="116" width="88" height="2" rx="1" fill="hsl(15 30% 40% / 0.4)"/>

    <rect x="372" y="308" width="56" height="44" rx="16" fill="#2c2228"/>
    <rect x="380" y="348" width="40" height="56" rx="6" fill="url(#cap)"/>
    <path d="M338 436 Q338 404 372 404 L428 404 Q462 404 462 436 L462 592 Q462 620 434 620 L366 620 Q338 620 338 592 Z" fill="url(#bodyDeep)"/>
    <rect x="396" y="410" width="8" height="180" rx="4" fill="hsl(15 30% 78% / 0.55)"/>
    <rect x="350" y="432" width="13" height="156" rx="6" fill="white" opacity="0.32"/>
    <text x="400" y="678" text-anchor="middle" font-family="'Segoe UI',Arial,Helvetica,sans-serif" font-size="14" letter-spacing="3.5" fill="hsl(15 30% 32%)">RAS LUXURY</text><text x="400" y="706" text-anchor="middle" font-family="Georgia,'Times New Roman',serif" font-style="italic" font-size="23" fill="#33222b">Radiance Beauty</text><text x="400" y="733" text-anchor="middle" font-family="Georgia,'Times New Roman',serif" font-style="italic" font-size="23" fill="#33222b">Boosting Day Elixir</text>

  <text x="400" y="742" text-anchor="middle" font-family="'Segoe UI',Arial,Helvetica,sans-serif" font-size="21" letter-spacing="4" fill="hsl(15 20% 34% / 0.75)">15 ML</text>
</svg>