<svg xmlns="http://www.w3.org/2000/svg" viewBox="0 0 800 800" role="img" aria-label="Sanfe Underarm Brightening Roll-On">

  <defs>
    <linearGradient id="bg" x1="0" y1="0" x2="0" y2="1">
      <stop offset="0" stop-color="hsl(300 40% 96%)"/>
      <stop offset="1" stop-color="hsl(300 34% 88%)"/>
    </linearGradient>
    <radialGradient id="glow" cx="0.5" cy="0.42" r="0.55">
      <stop offset="0" stop-color="white" stop-opacity="0.85"/>
      <stop offset="1" stop-color="white" stop-opacity="0"/>
    </radialGradient>
    <linearGradient id="body" x1="0" y1="0" x2="1" y2="0">
      <stop offset="0" stop-color="hsl(300 42% 80%)"/>
      <stop offset="0.5" stop-color="hsl(300 48% 66%)"/>
      <stop offset="1" stop-color="hsl(300 44% 54%)"/>
    </linearGradient>
    <linearGradient id="bodyDeep" x1="0" y1="0" x2="1" y2="0">
      <stop offset="0" stop-color="hsl(300 40% 46%)"/>
      <stop offset="1" stop-color="hsl(300 42% 30%)"/>
    </linearGradient>
    <linearGradient id="cap" x1="0" y1="0" x2="1" y2="0">
      <stop offset="0" stop-color="hsl(300 28% 34%)"/>
      <stop offset="1" stop-color="hsl(300 30% 20%)"/>
    </linearGradient>
    <linearGradient id="metal" x1="0" y1="0" x2="1" y2="0">
      <stop offset="0" stop-color="#e9dfca"/><stop offset="0.5" stop-color="#c9b489"/><stop offset="1" stop-color="#a68a55"/>
    </linearGradient>
    <radialGradient id="pan" cx="0.35" cy="0.3" r="0.9">
      <stop offset="0" stop-color="hsl(300 60% 84%)"/>
      <stop offset="0.6" stop-color="hsl(300 55% 68%)"/>
      <stop offset="1" stop-color="hsl(300 50% 56%)"/>
    </radialGradient>
  </defs>

  <rect width="800" height="800" fill="url(#bg)"/>
  <rect width="800" height="800" fill="url(#glow)"/>
  <circle cx="400" cy="430" r="252" fill="none" stroke="hsl(300 30% 55% / 0.28)" stroke-width="1.6"/>
  <circle cx="633" cy="222" r="4" fill="hsl(300 45% 55% / 0.5)"/>
  <circle cx="163" cy="286" r="3" fill="hsl(300 45% 55% / 0.45)"/>
  <circle cx="192" cy="596" r="4" fill="hsl(300 45% 55% / 0.4)"/>
  <ellipse cx="400" cy="648" rx="196" ry="26" fill="hsl(300 30% 30% / 0.16)"/>

  <text x="400" y="98" text-anchor="middle" font-family="Georgia,'Times New Roman',serif" font-style="italic" font-size="34" fill="hsl(300 25% 26% / 0.85)">Sanfe</text>
  <rect x="356" y="116" width="88" height="2" rx="1" fill="hsl(300 30% 40% / 0.4)"/>

    <path d="M326 400 Q326 322 400 322 Q474 322 474 400 L474 400 L326 400 Z" fill="url(#cap)"/>
    <path d="M326 400 Q326 372 356 372 L444 372 Q474 372 474 400 L474 590 Q474 620 444 620 L356 620 Q326 620 326 590 Z" fill="url(#body)"/>
    <rect x="340" y="400" width="15" height="190" rx="7" fill="white" opacity="0.42"/>
    <rect x="308" y="434" width="184" height="148" rx="10" fill="#fffdfb" opacity="0.96"/>
  <rect x="308" y="434" width="184" height="148" rx="10" fill="none" stroke="hsl(300 20% 60% / 0.5)"/>
  <text x="400" y="464" text-anchor="middle" font-family="'Segoe UI',Arial,Helvetica,sans-serif" font-size="13" letter-spacing="3" fill="hsl(300 30% 34%)">SANFE</text>
  <rect x="378" y="474" width="44" height="1.5" fill="hsl(300 30% 50% / 0.6)"/><text x="400" y="500" text-anchor="middle" font-family="Georgia,'Times New Roman',serif" font-style="italic" font-size="24" fill="#33222b">Underarm</text><text x="400" y="530" text-anchor="middle" font-family="Georgia,'Times New Roman',serif" font-style="italic" font-size="24" fill="#33222b">Brightening</text><text x="400" y="560" text-anchor="middle" font-family="Georgia,'Times New Roman',serif" font-style="italic" font-size="24" fill="#33222b">Roll-On</text>

  <text x="400" y="742" text-anchor="middle" font-family="'Segoe UI',Arial,Helvetica,sans-serif" font-size="21" letter-spacing="4" fill="hsl(300 20% 34% / 0.75)">50 ML</text>
</svg>